<?xml version="1.0" encoding="UTF-8"?> <svg xmlns="http://www.w3.org/2000/svg" xmlns:xlink="http://www.w3.org/1999/xlink" version="1.1" id="Layer_1" x="0px" y="0px" width="80px" height="80px" viewBox="0 0 80 80" style="enable-background:new 0 0 80 80;" xml:space="preserve"> <style type="text/css"> .st0{fill:#872A8C;} </style> <path class="st0" d="M59.3,21.9c0,0-0.4,1.3-0.8,2.7c-0.5,1.4-1.2,3.6-1.6,4.8c-0.4,1.2-1,3.2-1.4,4.3c-0.4,1.2-0.8,2.5-1,3.1 c-0.2,0.6-0.6,1.9-1,3.1c-0.4,1.2-0.7,2.2-0.8,2.4c0,0.2-0.1,0.3-0.2,0.3c0,0-1.1-1.2-2.3-2.7c-1.2-1.5-2.3-2.9-2.4-3.1l-0.2-0.3 l-0.8,1.6c-0.6,1.2-0.8,1.6-0.8,1.4c0-0.1-0.2-1-0.3-2.1c-0.1-1-0.2-2-0.3-2.2c0-0.3,0.3-0.6,4.1-4.4c2.3-2.3,4.2-4.2,4.2-4.2 c0.1-0.1-0.8,0.5-7.2,5.1l-3.8,2.7l-2.3-1.2c-1.3-0.7-2.6-1.4-3-1.6c-0.4-0.2-0.7-0.4-0.7-0.4c0,0,0.3-0.2,0.8-0.4 c0.4-0.2,1.5-0.6,2.4-1c0.9-0.4,3.5-1.5,5.8-2.4c2.3-1,6.2-2.6,8.7-3.7C57.1,22.7,59.2,21.8,59.3,21.9 C59.2,21.8,59.3,21.9,59.3,21.9z"></path> <path class="st0" d="M29.8,36.2v0.6h-1c-1.2,0-1.5,0.1-1.7,0.5c-0.2,0.4-0.2,0.8,0.2,1.1c0.3,0.3,0.3,0.3,1.4,0.3h1.2v0.6v0.6 l-1.3,0c-1.3,0-1.4,0-1.8-0.3c-1.5-1-1.3-3.2,0.5-3.8c0.2-0.1,0.8-0.1,1.5-0.1h1.1V36.2z"></path> <path class="st0" d="M31.3,36.2v0.6l0.6-0.6l0.6-0.6h0.8h0.8l-1,1c-0.6,0.6-1,1.1-1,1.1s0.4,0.5,0.9,1c0.5,0.5,1,1,1,1 c0,0-0.3,0.1-0.8,0.1h-0.8l-0.6-0.6l-0.6-0.6v0.6v0.6l-0.6,0l-0.6,0l0-2c0-1.1,0-2.1,0-2.1c0,0,0.3-0.1,0.6-0.1h0.5V36.2z"></path> <path class="st0" d="M37.6,36.2v0.6h-1c-1,0-1.6,0.1-1.6,0.3c0,0,0.5,0.1,1.2,0.1h1.2l0,0.6l0,0.6h-1.2c-0.6,0-1.2,0-1.2,0 s0.1,0.1,0.2,0.2c0.1,0.1,0.5,0.1,1.3,0.1h1.1v0.6v0.6h-1.2c-1.2,0-1.2,0-1.7-0.3c-1.2-0.7-1.5-2.4-0.4-3.3c0.5-0.5,1-0.7,2.3-0.7 h1.1V36.2z"></path> <path class="st0" d="M42,36.2v0.6l-0.7,0l-0.7,0l0,1.5l0,1.5l-0.6,0l-0.6,0v-1.6v-1.6h-0.8h-0.8v-0.5c0-0.3,0-0.6,0.1-0.6 c0,0,1-0.1,2-0.1h2V36.2z"></path> <path class="st0" d="M62.7,35.9c1.6,0.5,3.1,1.7,3.8,3.2c0.3,0.6,0.7,2,0.7,2.4c0,0,0.4,0,0.8,0h0.8l0,1.7l0,1.7l-5.5,0l-5.5,0v2.8 v2.8h3.7h3.7l0.2-0.2c0.2-0.3,0.2-0.5-0.1-0.8c-0.2-0.2-0.4-0.2-2.4-0.2c-1.2,0-2.1,0-2.1-0.1c0,0,0.3-0.8,0.7-1.7L62,46l2,0l2,0 l0.6,0.3c0.8,0.4,1.5,1.1,1.8,1.9c0.3,0.6,0.3,0.8,0.3,1.7c0,0.9,0,1.1-0.3,1.6c-0.4,0.8-1.1,1.5-1.9,1.9l-0.6,0.3h-5.7h-5.7v-6.1 v-6.1l4.7,0c5.4,0,5,0.1,4.4-1c-0.3-0.6-0.7-1-1.5-1.3C61.6,39,61.4,39,60.8,39c-0.8,0.1-1.3,0.3-1.9,0.9l-0.4,0.4l-0.9-0.8 c-0.5-0.4-1-1-1.2-1.1l-0.4-0.3l0.5-0.5c1-1,1.9-1.5,3.1-1.8C60.6,35.6,61.9,35.6,62.7,35.9z"></path> <path class="st0" d="M32.9,42.1c-2.6,2.9-2.9,7.1-0.8,10.1c0.2,0.4,0.4,0.7,0.4,0.7c0,0.1-2.4,2.1-2.4,2.1c-0.1,0-0.9-1.1-1.4-2 c-1-1.8-1.3-3.3-1.3-5.5c0-1.4,0-1.7,0.3-2.6c0.3-1.1,0.7-2.2,1.2-3l0.2-0.4h2.2h2.2L32.9,42.1z"></path> <path class="st0" d="M20.4,52.7c2,0.5,2.6,3,1.2,4.5c-1.3,1.4-3.6,1-4.4-0.8C16.3,54.4,18.2,52.1,20.4,52.7z"></path> <path class="st0" d="M37.9,56.8c0,1,0,1-0.2,1c-0.2,0-0.2-0.1-0.2-0.8c0-0.7,0-0.9-0.1-0.9c-0.1,0-0.1,0.2-0.1,0.8 c0,0.8,0,0.8-0.2,0.9c-0.2,0-0.2,0-0.2-0.5c0-0.5,0-0.6-0.2-0.6c-0.1,0-0.2,0.1-0.3,0.2c0,0.1-0.1,0.2-0.2,0.2 c-0.1,0-0.2-0.1-0.2-0.2c0-0.2-0.4-0.2-0.5,0c0,0.1,0,0.2,0,0.3c0,0.2,0.1,0.2,0.4,0.2c0.2,0,0.3,0,0.3,0.2c0,0.2-0.1,0.2-0.4,0.2 c-0.6,0-0.7-0.2-0.6-0.9l0-0.5l0.5,0c0.3,0,0.6,0,0.7,0c0.1,0,0.2,0,0.4,0c0.1,0,0.2-0.1,0.2-0.2c0-0.1-0.2-0.2-0.9-0.2 c-0.8,0-0.9,0-0.9-0.2s0.1-0.2,1.4-0.2h1.4V56.8z"></path> <path class="st0" d="M30.2,56.8c0,0.2-0.1,0.2-0.5,0.2c-0.4,0-0.4,0-0.4-0.2c0-0.2,0.1-0.2,0.4-0.2C30.1,56.6,30.2,56.6,30.2,56.8z"></path> <path class="st0" d="M43.9,57.2c0.3,0.1,0.4,0.2,0.4,0.4c0,0.2,0,0.2-0.7,0c-0.5-0.2-0.6-0.3-0.6-0.5C43,56.9,43.1,56.9,43.9,57.2z"></path> <path class="st0" d="M63.7,57.3c0.5,0.4,0.8,0.8,0.7,0.9c-0.1,0.1-1.3-0.9-1.3-1.1C63.1,56.8,63.1,56.8,63.7,57.3z"></path> <path class="st0" d="M67.8,57.3c0.5,0.4,0.8,0.8,0.7,0.9c-0.1,0.1-1.3-0.9-1.3-1.1C67.2,56.8,67.2,56.8,67.8,57.3z"></path> <path class="st0" d="M34.3,57.2c0.5,0.2,0.6,0.4,0.4,0.5c-0.2,0.1-1.2-0.4-1.2-0.6C33.5,56.9,33.7,57,34.3,57.2z"></path> <path class="st0" d="M29.4,57.9c0.1,0.1-0.1,0.2-0.5,0.2c-0.3-0.1-0.4-0.2-0.3-0.3C28.8,57.7,29.3,57.8,29.4,57.9z"></path> <path class="st0" d="M20.4,39.2l-0.6-0.6l0.4-0.2c0.4-0.2,0.7-0.8,0.7-1.3c0-0.5-0.4-1-0.8-1.3c-0.4-0.2-0.6-0.2-1.8-0.2h-1.4v2.2 v2.1h0.6H18v-0.6c0-0.4,0-0.6,0.1-0.6c0,0,0.4,0.3,0.7,0.6l0.6,0.6h0.8c0.4,0,0.8,0,0.8-0.1C21,39.8,20.7,39.5,20.4,39.2z M19.7,37.2c-0.1,0.1-0.3,0.2-0.9,0.2l-0.8,0v-0.3v-0.3h0.7C19.6,36.8,19.8,36.9,19.7,37.2z"></path> <path class="st0" d="M23.9,35.7c-1.4-0.4-2.8,0.6-2.8,2.1c0,1.2,1,2.1,2.2,2.1c1.1,0,2.1-1,2.1-2.1C25.4,36.9,24.8,36,23.9,35.7z M22.6,38.5c-0.2-0.2-0.3-0.3-0.3-0.6c0-0.4,0.2-0.8,0.5-0.9c0.6-0.3,1.4,0.2,1.4,0.9C24.2,38.6,23.3,39,22.6,38.5z"></path> <path class="st0" d="M21.2,41.5c-4.1,0-4.6,0-5.2,0.2c-2.5,0.7-4.2,2.5-4.6,5.1c-0.2,0.9-0.2,1,0,1.9c0.4,2.5,2.3,4.5,4.7,5.1 l0.6,0.1l0.3-0.5c0.4-0.5,1.1-1,1.7-1.3c0.6-0.2,1.8-0.2,2.5,0.1c0.5,0.3,1.2,0.9,1.5,1.3l0.2,0.3h1.5h1.5v-6.2v-6.2L21.2,41.5z M22.3,47.7v2.8h-2.8c-2.7,0-2.8,0-3.3-0.2c-1-0.5-1.6-1.5-1.6-2.5c0-1.3,0.7-2.3,1.9-2.8c0.2-0.1,1.2-0.1,3.1-0.1l2.8,0V47.7z"></path> <path class="st0" d="M52,44.9c-0.5-1-1.7-2.2-2.7-2.7c-0.4-0.2-1.1-0.4-1.4-0.5c-1-0.2-9.8-0.2-10.7,0c-2,0.4-3.7,1.9-4.4,3.8 c-0.3,0.7-0.3,1-0.4,2c0,0.9,0,1.3,0.1,1.8c0.4,1.7,1.6,3.2,3.2,4c1.2,0.6,1.1,0.6,6.3,0.6l4.8,0v-4.5v-4.5l0.3,0 c0.7,0,1.7,0.7,2.1,1.5c0.6,1.1,0.4,2.3-0.5,3.2l-0.5,0.5l1.1,1.2c0.6,0.6,1.1,1.2,1.1,1.2c0.1,0,1.2-1.1,1.5-1.7 C52.9,49.1,53,46.8,52,44.9z M43.4,47.7v2.8l-2.9,0c-2.6,0-3,0-3.3-0.2c-0.6-0.3-1.1-0.8-1.4-1.4c-0.2-0.5-0.2-0.6-0.2-1.3 c0-0.4,0.1-0.9,0.3-1.1c0.3-0.5,1.1-1.3,1.5-1.4c0.2-0.1,1.5-0.1,3.2-0.1l2.8,0V47.7z"></path> <path class="st0" d="M67.2,55.8c0-0.1-0.2-0.2-1.2-0.2c-1,0-1.2,0-1.2-0.1c0-0.2,0.4-0.5,0.7-0.5c0.2,0,0.5,0.1,0.7,0.2 c0.3,0.2,0.4,0.2,0.5,0.1c0.1-0.1,0-0.2-0.3-0.3c-0.5-0.3-0.8-0.3-1.2-0.2c-0.4,0.1-0.8,0.5-0.8,0.7c0,0.1,0,0.1-0.1,0.1 c-0.1,0-0.1,0.1-0.1,0.2c0,0.1,0,0.2,0.1,0.2c0.1,0,0.1,0.4,0.1,0.9c0,0.9,0,0.9,0.2,0.9c0.2,0,0.2,0,0.2-0.5c0-0.3,0-0.5,0-0.5 c0,0,0.1,0,0.1,0.1c0,0.1,0.2,0.2,0.3,0.2c0.2,0.1,0.4,0.3,0.5,0.4c0.1,0.1,0.2,0.3,0.4,0.3c0.2,0,0.2-0.1,0.2-0.7 c0-0.6,0-0.7,0.2-0.7c0.2,0,0.3,0.3,0.1,0.4c-0.1,0.1-0.2,0.2-0.2,0.2c0,0.2,0.4,0.1,0.5-0.1c0.2-0.3,0.1-0.6-0.2-0.8L66.4,56l0.4,0 C67.1,56,67.2,56,67.2,55.8z M64.7,56.6c0,0,0-0.2,0-0.3c0-0.3,0.1-0.3,0.5-0.3c0.3,0,0.5,0,0.5,0C65.8,56.1,64.8,56.7,64.7,56.6z M65.9,57.2L65.7,57c-0.2-0.2-0.2-0.2-0.1-0.4c0.2-0.2,0.3-0.2,0.3,0.2V57.2z"></path> <path class="st0" d="M57.2,55.7c-1.1,0-1.3,0-1.3-0.1c0-0.1-0.1-0.2-0.2-0.4c-0.1-0.1-0.3-0.2-0.4-0.2c-0.4,0-0.8,0.2-0.8,0.4 c0,0.2,0.1,0.2,0.4,0c0.3-0.1,0.7,0,0.7,0.2c0,0.1-1.3,0.1-3.5,0.1h-3.5l-0.3,0.4C48.1,56.4,48,56.6,48,57c0,0.6,0.3,0.9,0.8,0.9 c0.2,0,0.1-0.3-0.1-0.3c-0.4,0-0.5-0.7-0.2-1.1c0.2-0.3,0.2-0.3,0.6-0.2c0.3,0.1,0.4,0.2,0.4,0.3c0,0.1-0.1,0.1-0.1,0.1 c-0.2,0-0.5,0.3-0.5,0.6c0,0.4,0.4,0.6,0.8,0.5c0.2-0.1,0.1-0.3-0.2-0.3c-0.1,0-0.2-0.1-0.2-0.1c0-0.4,0.9-0.1,1.1,0.3 c0.1,0.2,0.2,0.3,0.3,0.3c0.1,0,0.1-0.2,0.1-0.9c0-0.7,0-0.9,0.2-0.9s0.2,0.2,0.2,0.9c0,0.8,0,0.9,0.2,0.9c0.2,0,0.2-0.1,0.2-0.9V56 l0.8,0c0.8,0,0.8,0,0.5,0.2c-0.7,0.3-1,0.5-1,0.6c0,0.2,0.1,0.2,0.7,0.5c0.2,0.1,0.5,0.3,0.6,0.4c0.1,0.1,0.2,0.2,0.4,0.2 c0.2,0,0.2-0.1,0.2-0.9c0-0.7,0-0.9,0.2-0.9c0.1,0,0.2,0.2,0.2,0.9c0,0.8,0,0.9,0.2,0.9c0.2,0,0.2-0.1,0.2-0.9V56h0.3H55l-0.2,0.2 c-0.3,0.2-0.3,0.5,0,0.7c0.1,0.1,0.2,0.1,0.3,0c0.1-0.1,0.1-0.1,0-0.2c-0.1,0-0.1-0.1-0.1-0.1c0-0.2,0.4,0,0.5,0.1 c0.1,0.2,0,0.3-0.6,0.4c-0.3,0-0.4,0.1-0.4,0.2c0,0.1,0,0.2,0.1,0.2c0.1,0,0.3,0.1,0.6,0.3c0.5,0.3,0.9,0.3,0.6,0 c-0.1-0.1-0.3-0.2-0.4-0.3c-0.3-0.1-0.2-0.2,0.1-0.3c0.5-0.1,0.5-0.8,0-1.1c-0.2-0.1-0.1-0.2,1-0.2c1.3,0,1.3,0,1.3,0.2 c0,0.2-0.1,0.2-0.7,0.3c-0.1,0-0.3,0-0.4-0.1c-0.5-0.1-1,0.7-0.5,1.1c0.3,0.2,0.5,0.3,0.6,0.2c0.2-0.2,0.1-0.3-0.1-0.3 c-0.3,0-0.4-0.4-0.1-0.5c0.1,0,0.2,0,0.4,0.2l0.2,0.2l0.2-0.2c0.3-0.3,0.5-0.1,0.5,0.4c0,0.3,0,0.4,0.2,0.4c0.2,0,0.2-0.1,0.2-0.9 c0-0.5,0-0.9,0.1-0.9c0,0,0.1-0.1,0.1-0.2C58.5,55.7,58.3,55.7,57.2,55.7z M50.5,56.9c-0.1,0-0.5-0.3-0.5-0.4c0-0.1-0.1-0.2-0.2-0.3 C49.6,56,49.7,56,50.1,56l0.4,0l0,0.4C50.6,56.7,50.6,56.9,50.5,56.9z M53.3,57.2c0,0-0.2-0.1-0.4-0.2l-0.4-0.2l0.4-0.2 c0.2-0.1,0.4-0.2,0.4-0.1C53.4,56.5,53.3,57.2,53.3,57.2z"></path> <path class="st0" d="M28.4,56.4c-0.1,0.1-0.3,0.2-0.6,0.1c-0.4,0-0.4-0.1-0.5-0.3c0-0.2,0-0.2,0.7-0.2c0.7,0,0.8,0,0.8-0.2 s-0.1-0.2-2.6-0.2c-1.8,0-2.6,0-2.7,0.1c-0.1,0.2,0.1,0.3,0.5,0.3c0.4,0,0.4,0,0.4,0.5l0,0.4l0.5,0c0.3,0,0.5,0,0.4,0 c0,0,0,0.1,0,0.2c0,0.1-0.2,0.2-0.7,0.2H24l0-0.5c0-0.4-0.1-0.5-0.2-0.5s-0.2,0.1-0.2,0.6c0,0.8,0.1,0.9,1.2,0.9c0.8,0,0.9,0,1-0.2 c0.2-0.3,0.2-1.2,0-1.2c-0.1,0-0.2,0-0.3,0.1c-0.1,0.1-0.2,0.2-0.3,0.2c-0.2,0-0.2-0.1-0.2-0.2c0-0.2,0-0.3,0.6-0.3h0.6V57 c0,0.8,0,0.8,0.2,0.8c0.2,0,0.3,0,0.3-0.8c0-0.7,0-0.9,0.1-0.9s0.2,0.2,0.2,0.9v0.8h0.8c1,0,1.1-0.1,1.1-0.9 C28.8,56.4,28.7,56.2,28.4,56.4z M27.9,57.4c-0.5,0-0.6,0-0.6-0.2c0-0.2,0.1-0.2,0.4-0.2c0.2,0,0.5,0,0.5-0.1c0.1,0,0.1,0.1,0.1,0.2 C28.4,57.4,28.4,57.4,27.9,57.4z"></path> <path class="st0" d="M33.2,56.8l0-1l-1.3,0c-1.2,0-1.3,0-1.3,0.2s0.1,0.2,0.8,0.2c0.6,0,0.8,0,0.7,0.1c0,0.1-0.3,0.1-0.7,0.1h-0.7 l0,0.5c0,0.3,0,0.6,0.1,0.7c0.1,0.2,0.2,0.2,1,0.2h0.8v-0.9c0-0.6,0-0.8,0.1-0.8c0.1,0,0.1,0.3,0.2,0.9c0,0.7,0,0.8,0.2,0.8 C33.2,57.8,33.2,57.7,33.2,56.8z M31.6,57.4c-0.6,0-0.7-0.2-0.5-0.5c0-0.1,0.2-0.1,0.5-0.1c0.5,0,0.5,0,0.5,0.4l0,0.3L31.6,57.4z"></path> <path class="st0" d="M42.7,56.8l0-1l-1.8,0c-1.8,0-1.8,0-1.8,0.2s0.1,0.2,0.7,0.2c0.4,0,0.8,0,0.8,0.1c0,0.1-0.6,0.2-1.1,0.2l-0.4,0 l0,0.5c0,0.3,0,0.5,0.2,0.7c0.2,0.2,0.3,0.3,1,0.3h0.7V57c0-0.8,0-0.9,0.2-0.9c0.2,0,0.2,0,0.1,0.2c-0.2,0.3-0.1,0.4,0.2,0.5 c0.2,0.1,0.3,0.2,0.3,0.4c0,0.1-0.1,0.2-0.3,0.3c-0.4,0-0.3,0.4,0.1,0.4c0.5,0,0.6-0.2,0.6-0.8c0-0.4-0.1-0.5-0.3-0.6 c-0.3-0.1-0.2-0.3,0.1-0.3h0.3l0,0.8c0,0.7,0,0.8,0.2,0.8C42.7,57.8,42.7,57.8,42.7,56.8z M40,57.5c-0.5,0-0.5,0-0.5-0.4l0-0.4 l0.5,0l0.5,0l0,0.4l0,0.4L40,57.5z"></path> <path class="st0" d="M46.7,56.1c0.3,0,0.4,0,0.4-0.2c0-0.2-0.1-0.2-1.2-0.2c-1.2,0-1.4,0-1.4,0.3c0,0.1,0.2,0.1,0.7,0.2 c0.9,0,0.9,0.2,0,0.2h-0.7v0.6c0,0.8,0.1,0.9,1.1,0.9h0.8v-0.6c0-0.4,0-0.6,0.2-0.6c0.2,0,0.3,0.3,0.2,0.4c-0.1,0-0.1,0.1-0.1,0.2 c0,0.2,0,0.2,0.2,0.2c0.2,0,0.2-0.1,0.2-0.6c0-0.5,0-0.5-0.3-0.5c-0.2,0-0.3-0.1-0.3-0.1C46.4,56.1,46.5,56.1,46.7,56.1z M45.5,57.4 c-0.5,0-0.5,0-0.5-0.3c0-0.2,0-0.3,0-0.3c0,0,0.3,0,0.5,0c0.5,0,0.5,0,0.5,0.3l0,0.3H45.5z"></path> <path class="st0" d="M61.1,55.7c-1.7,0-1.9,0-1.9,0.2S59.3,56,60,56c0.6,0,0.7,0,0.5,0.1c-1,0.4-1.1,0.5-1.1,0.7 c0,0.2,0.1,0.2,0.4,0.3c0.2,0,0.5,0.2,0.8,0.4c0.2,0.2,0.5,0.3,0.5,0.3c0.1,0,0.1-0.4,0.1-0.9c0-0.9,0-0.9,0.2-0.9 c0.2,0,0.2,0,0.2,0.2c-0.1,0.2,0,0.4,0.1,0.7c0.2,0.4,0.2,0.5,0,0.6c-0.2,0.1-0.2,0.4,0,0.4c0.1,0,0.2-0.1,0.4-0.2l0.2-0.2L62,56.9 c-0.2-0.7-0.1-0.9,0.3-0.9c0.2,0,0.2,0.1,0.2,0.9c0,0.7,0,0.9,0.2,0.9s0.2-0.2,0.2-0.9s0-0.9,0.1-0.9c0.1,0,0.2-0.1,0.2-0.2 C63.1,55.7,62.8,55.7,61.1,55.7z M60.4,57c-0.4-0.2-0.3-0.2,0-0.4c0.4-0.2,0.5-0.2,0.5,0.3C60.9,57.2,60.9,57.2,60.4,57z"></path> <path class="st0" d="M64,56c-0.3-0.4-1-0.2-1,0.3c0,0.3,0.3,0.6,0.6,0.6c0.2,0,0.6-0.4,0.5-0.6C64.2,56.2,64.1,56.1,64,56z M63.6,56.5c-0.2,0-0.3-0.2-0.2-0.3c0.1-0.2,0.4-0.1,0.4,0.1C63.8,56.4,63.7,56.5,63.6,56.5z"></path> <path class="st0" d="M68.1,55.9c-0.2-0.2-0.3-0.2-0.6-0.1c-0.5,0.2-0.4,0.9,0.1,1.1c0.2,0,0.3,0,0.4-0.2 C68.3,56.4,68.3,56.2,68.1,55.9z M67.6,56.4c-0.1-0.1-0.1-0.2,0-0.2c0.1-0.1,0.4-0.1,0.4,0.1C68,56.4,67.7,56.6,67.6,56.4z"></path> <path class="st0" d="M34.7,56.4c0-0.2-0.1-0.4-0.2-0.5c-0.1,0-0.4-0.1-0.6-0.1h-0.5v0.4c0,0.5,0.2,0.6,0.8,0.6 C34.7,56.8,34.7,56.8,34.7,56.4z M34.3,56.3c0,0.1-0.1,0.1-0.2,0.1c-0.1,0-0.2,0-0.2-0.1c0,0,0.1-0.1,0.2-0.1 C34.3,56.2,34.4,56.2,34.3,56.3z"></path> <path class="st0" d="M44.2,55.9c-0.1-0.1-0.4-0.1-0.6-0.1H43v0.4c0,0.5,0.2,0.6,0.8,0.6h0.5v-0.4C44.3,56.2,44.2,56,44.2,55.9z M43.7,56.4c-0.1,0-0.2,0-0.3-0.1c0,0,0-0.1,0.1-0.1c0.1,0,0.2,0,0.3,0.1C43.9,56.4,43.8,56.4,43.7,56.4z"></path> </svg> 