<svg xmlns="http://www.w3.org/2000/svg" width="1920" height="1200" viewBox="0 0 1920 1200" preserveAspectRatio="xMidYMid slice">
  <defs>
    <!-- Stone body: soft tonal variation -->
    <filter id="stone" x="-5%" y="-5%" width="110%" height="110%">
      <feTurbulence type="fractalNoise" baseFrequency="0.012 0.018" numOctaves="5" seed="7" stitchTiles="stitch" result="t"/>
      <feColorMatrix in="t" type="matrix"
        values="0 0 0 0 0.06
                0 0 0 0 0.06
                0 0 0 0 0.07
                0 0 0 0.55 0" result="tone"/>
      <feBlend in="SourceGraphic" in2="tone" mode="soft-light"/>
    </filter>

    <!-- Fine film grain inside the marble -->
    <filter id="film" x="0" y="0" width="100%" height="100%">
      <feTurbulence type="fractalNoise" baseFrequency="1.4" numOctaves="2" seed="3" stitchTiles="stitch" result="n"/>
      <feColorMatrix type="matrix" values="0 0 0 0 1  0 0 0 0 1  0 0 0 0 1  0 0 0 0.45 0" in="n" result="g"/>
      <feBlend in="SourceGraphic" in2="g" mode="soft-light"/>
    </filter>

    <!-- Soft edge for filled veins -->
    <filter id="veinBlur" x="-10%" y="-10%" width="120%" height="120%">
      <feGaussianBlur stdDeviation="1.8"/>
    </filter>
    <filter id="veinSoft" x="-15%" y="-15%" width="130%" height="130%">
      <feGaussianBlur stdDeviation="4.5"/>
    </filter>

    <linearGradient id="silverA" x1="0" y1="0" x2="1" y2="0.4">
      <stop offset="0%" stop-color="#ffffff" stop-opacity="0"/>
      <stop offset="18%" stop-color="#f7f7fa" stop-opacity="0.95"/>
      <stop offset="35%" stop-color="#c9c9d1" stop-opacity="0.35"/>
      <stop offset="52%" stop-color="#ffffff" stop-opacity="0.88"/>
      <stop offset="70%" stop-color="#a8a8b2" stop-opacity="0.4"/>
      <stop offset="88%" stop-color="#ececf2" stop-opacity="0.7"/>
      <stop offset="100%" stop-color="#ffffff" stop-opacity="0"/>
    </linearGradient>
    <linearGradient id="silverB" x1="1" y1="0.1" x2="0" y2="0.9">
      <stop offset="0%" stop-color="#ffffff" stop-opacity="0"/>
      <stop offset="25%" stop-color="#e8e8ee" stop-opacity="0.75"/>
      <stop offset="48%" stop-color="#ffffff" stop-opacity="0.2"/>
      <stop offset="72%" stop-color="#bdbdc6" stop-opacity="0.55"/>
      <stop offset="100%" stop-color="#ffffff" stop-opacity="0"/>
    </linearGradient>
    <radialGradient id="depth" cx="48%" cy="40%" r="62%">
      <stop offset="0%" stop-color="#1a1a1e" stop-opacity="0.55"/>
      <stop offset="45%" stop-color="#0c0c0e" stop-opacity="0.15"/>
      <stop offset="100%" stop-color="#030304" stop-opacity="0.85"/>
    </radialGradient>
  </defs>

  <!-- Base nero marble -->
  <rect width="1920" height="1200" fill="#08080a"/>
  <rect width="1920" height="1200" fill="#101014" filter="url(#stone)" opacity="0.9"/>
  <rect width="1920" height="1200" fill="url(#depth)"/>

  <!-- Soft luminous vein washes (photographic marble body) -->
  <g filter="url(#veinSoft)" opacity="0.55">
    <path d="M-120 210 C180 40 420 260 700 140 S1180 20 1480 180 S1780 340 2040 240"
          fill="none" stroke="#f2f2f6" stroke-width="78" stroke-linecap="round"/>
    <path d="M-80 520 C220 380 480 620 820 480 S1280 300 1580 460 S1860 640 2040 560"
          fill="none" stroke="#d8d8e0" stroke-width="56" stroke-linecap="round"/>
    <path d="M2040 80 C1680 220 1520 420 1180 560 S620 780 360 920 S80 1080 -40 1180"
          fill="none" stroke="#ececf2" stroke-width="64" stroke-linecap="round"/>
  </g>

  <!-- Sharp silver core veins -->
  <g filter="url(#veinBlur)" opacity="0.92">
    <path d="M-100 200 C200 50 440 250 720 135 S1200 30 1500 175 S1820 330 2060 230"
          fill="none" stroke="url(#silverA)" stroke-width="14" stroke-linecap="round"/>
    <path d="M-60 500 C240 370 500 600 840 470 S1300 290 1600 450 S1880 630 2060 550"
          fill="none" stroke="url(#silverB)" stroke-width="10" stroke-linecap="round"/>
    <path d="M2020 90 C1660 230 1500 430 1160 570 S600 790 340 930 S60 1090 -60 1190"
          fill="none" stroke="#ffffff" stroke-width="9" stroke-linecap="round" opacity="0.7"/>
    <path d="M80 -40 C260 220 180 420 380 640 S780 880 980 1020 S1280 1140 1500 1260"
          fill="none" stroke="#e4e4ea" stroke-width="7" stroke-linecap="round" opacity="0.55"/>
    <path d="M1700 -60 C1500 180 1580 400 1320 580 S820 760 640 920 S420 1080 280 1240"
          fill="none" stroke="#f8f8fc" stroke-width="11" stroke-linecap="round" opacity="0.5"/>
  </g>

  <!-- Hairline branch veins -->
  <g opacity="0.45" fill="none" stroke-linecap="round">
    <path d="M420 160 C520 220 560 300 640 360" stroke="#fff" stroke-width="2.2"/>
    <path d="M900 120 C980 200 1020 280 1120 340" stroke="#dcdce4" stroke-width="1.8"/>
    <path d="M1280 220 C1380 300 1420 400 1520 470" stroke="#fff" stroke-width="2"/>
    <path d="M300 480 C400 540 460 620 540 690" stroke="#cfcfd8" stroke-width="1.6"/>
    <path d="M1100 480 C1200 540 1280 640 1380 710" stroke="#fff" stroke-width="1.7"/>
    <path d="M700 700 C800 760 860 860 960 940" stroke="#e8e8f0" stroke-width="2"/>
    <path d="M200 780 C320 720 420 780 520 860" stroke="#fff" stroke-width="1.5"/>
    <path d="M1400 820 C1520 760 1620 820 1740 900" stroke="#d8d8e0" stroke-width="1.8"/>
    <path d="M860 40 C900 120 880 200 920 280" stroke="#fff" stroke-width="1.4" opacity="0.7"/>
    <path d="M1580 500 C1640 580 1620 680 1680 760" stroke="#eeeef4" stroke-width="1.5"/>
  </g>

  <!-- Micro fracture sparks -->
  <g opacity="0.28" fill="none" stroke="#ffffff" stroke-width="1">
    <path d="M540 280 L610 250"/>
    <path d="M1010 310 L1070 290"/>
    <path d="M760 560 L820 530"/>
    <path d="M1340 610 L1410 590"/>
    <path d="M480 820 L540 800"/>
    <path d="M1180 880 L1250 860"/>
  </g>

  <rect width="1920" height="1200" filter="url(#film)" opacity="0.55"/>
</svg>
