<svg xmlns="http://www.w3.org/2000/svg" width="1920" height="1200" viewBox="0 0 1920 1200" preserveAspectRatio="xMidYMid slice">
  <defs>
    <filter id="soft" x="-25%" y="-25%" width="150%" height="150%"><feGaussianBlur stdDeviation="5"/></filter>
    <filter id="core" x="-10%" y="-10%" width="120%" height="120%"><feGaussianBlur stdDeviation="1.2"/></filter>
    <linearGradient id="s" x1="0" y1="0" x2="1" y2="0.25">
      <stop offset="0%" stop-color="#fff" stop-opacity="0"/>
      <stop offset="35%" stop-color="#fff" stop-opacity="0.85"/>
      <stop offset="55%" stop-color="#c8c8d2" stop-opacity="0.25"/>
      <stop offset="75%" stop-color="#f4f4f8" stop-opacity="0.7"/>
      <stop offset="100%" stop-color="#fff" stop-opacity="0"/>
    </linearGradient>
  </defs>
  <g filter="url(#soft)" opacity="0.55" fill="none" stroke-linecap="round">
    <path d="M-100 220 C240 40 580 280 940 130 S1480 20 1860 190" stroke="#fff" stroke-width="42"/>
    <path d="M2040 90 C1600 260 1380 520 980 700 S400 940 80 1120" stroke="#e8e8f0" stroke-width="34"/>
    <path d="M-60 640 C300 500 640 760 1000 600 S1500 420 1980 580" stroke="#d0d0da" stroke-width="28"/>
  </g>
  <g filter="url(#core)" opacity="0.85" fill="none" stroke-linecap="round">
    <path d="M-80 210 C260 50 600 270 960 125 S1500 25 1880 185" stroke="url(#s)" stroke-width="8"/>
    <path d="M2020 100 C1580 270 1360 530 960 710 S380 950 60 1130" stroke="#ffffff" stroke-width="6"/>
    <path d="M-40 630 C320 500 660 750 1020 595 S1520 420 2000 575" stroke="#f0f0f6" stroke-width="5"/>
    <path d="M420 40 C500 180 460 340 560 500 S780 760 860 920" stroke="#fff" stroke-width="3" opacity="0.5"/>
    <path d="M1400 60 C1320 220 1380 400 1260 560 S980 760 880 940" stroke="#eaeaf0" stroke-width="3.5" opacity="0.45"/>
  </g>
</svg>
