<svg width="420" height="240" viewBox="0 0 420 240" fill="none" xmlns="http://www.w3.org/2000/svg">
  <defs>
    <linearGradient id="infStrokeMain" x1="30" y1="40" x2="390" y2="204" gradientUnits="userSpaceOnUse">
      <stop offset="0%" stop-color="#A6F3FF"/>
      <stop offset="45%" stop-color="#5CBFFF"/>
      <stop offset="100%" stop-color="#7B6CFF"/>
    </linearGradient>
    <linearGradient id="infStrokeEdge" x1="22" y1="30" x2="404" y2="218" gradientUnits="userSpaceOnUse">
      <stop offset="0%" stop-color="#FFFFFF"/>
      <stop offset="55%" stop-color="#A6EFFF"/>
      <stop offset="100%" stop-color="#D5BEFF"/>
    </linearGradient>
    <filter id="infGlow" x="0" y="0" width="420" height="240" filterUnits="userSpaceOnUse">
      <feGaussianBlur stdDeviation="6.5" result="blur"/>
      <feMerge>
        <feMergeNode in="blur"/>
        <feMergeNode in="SourceGraphic"/>
      </feMerge>
    </filter>
  </defs>

  <g filter="url(#infGlow)">
    <path d="M25 120C25 69.7 62.6 34 109 34C149.3 34 175 63.7 210 120C245 176.3 270.7 206 311 206C357.4 206 395 170.3 395 120C395 69.7 357.4 34 311 34C270.7 34 245 63.7 210 120C175 176.3 149.3 206 109 206C62.6 206 25 170.3 25 120Z" stroke="url(#infStrokeMain)" stroke-width="54" stroke-linecap="round" stroke-linejoin="round"/>
    <path d="M25 120C25 69.7 62.6 34 109 34C149.3 34 175 63.7 210 120C245 176.3 270.7 206 311 206C357.4 206 395 170.3 395 120C395 69.7 357.4 34 311 34C270.7 34 245 63.7 210 120C175 176.3 149.3 206 109 206C62.6 206 25 170.3 25 120Z" stroke="url(#infStrokeEdge)" stroke-opacity="0.52" stroke-width="11" stroke-linecap="round" stroke-linejoin="round"/>
  </g>
</svg>
